<?xml version="1.0" encoding="UTF-8"?><svg id="Layer_1" xmlns="http://www.w3.org/2000/svg" viewBox="0 0 117.973 56.51"><path d="M13.535,21.173c-1.029,2.494-2.521,4.744-4.475,6.75-1.954,2.005-4.229,3.715-6.826,5.129l-.386-.463c1.568-1.568,2.898-3.433,3.992-5.592,1.093-2.16,1.935-4.307,2.526-6.441h5.168v.617ZM18.24,11.493c.899.771,1.651,1.427,2.256,1.967.604.54,1.15,1.055,1.639,1.542-.025.207-.135.36-.327.463-.193.104-.431.154-.714.154H2.62l-.309-1.118h13.73l2.198-3.008ZM17.815,17.201c.874.746,1.601,1.375,2.18,1.89.578.515,1.099,1.003,1.562,1.465-.103.412-.45.617-1.041.617H2.813l-.309-1.079h13.306l2.005-2.893ZM17.506,3.355c.9.72,1.646,1.337,2.237,1.851.591.515,1.118,1.017,1.581,1.505-.103.411-.438.616-1.003.616H3.083l-.309-1.118h12.65l2.082-2.854ZM6.399,7.752c1.414.488,2.494,1.048,3.24,1.678.745.63,1.234,1.253,1.466,1.87s.27,1.184.115,1.697c-.154.515-.438.92-.849,1.215-.411.296-.887.418-1.427.366-.54-.051-1.08-.334-1.62-.849.025-1.003-.103-2.03-.386-3.085-.283-1.054-.592-1.967-.925-2.738l.385-.154ZM8.367.27c1.696.181,3.014.509,3.953.983.938.477,1.562,1.022,1.87,1.64s.392,1.195.251,1.735c-.142.54-.443.99-.906,1.35-.463.36-1.01.534-1.64.521-.63-.013-1.279-.289-1.947-.829-.026-.926-.231-1.863-.617-2.815-.386-.95-.81-1.748-1.272-2.391l.309-.193ZM14.653,35.443c0,.128-.348.347-1.041.655-.694.309-1.659.463-2.893.463h-.849V14.81h4.782v20.634ZM19.744,8.986c-.077.231-.231.418-.463.559-.231.142-.565.2-1.003.174-.592.797-1.35,1.697-2.275,2.699-.926,1.003-1.877,1.916-2.854,2.738h-.579c.231-.771.438-1.612.617-2.525s.348-1.832.502-2.758.27-1.761.347-2.507l5.708,1.62ZM14.267,22.369c1.594.438,2.841.964,3.741,1.581.899.617,1.529,1.253,1.89,1.909.359.655.494,1.279.405,1.87-.091.592-.315,1.074-.676,1.446-.36.373-.822.56-1.388.56s-1.145-.244-1.735-.733c-.053-.745-.213-1.504-.482-2.275-.271-.771-.592-1.517-.964-2.236-.373-.72-.766-1.351-1.177-1.89l.386-.231ZM27.688,5.862c-.129.283-.476.463-1.041.54v10.528c0,1.672-.077,3.394-.231,5.168s-.508,3.535-1.061,5.284c-.553,1.748-1.414,3.407-2.584,4.975-1.17,1.568-2.783,2.995-4.84,4.281l-.425-.386c1.363-1.852,2.353-3.851,2.97-5.997s1.009-4.358,1.177-6.634c.167-2.275.25-4.544.25-6.807V4.05l5.785,1.812ZM34.553,11.03c.617.515,1.157.978,1.62,1.388.463.412.95.843,1.465,1.292.515.45.978.868,1.389,1.254-.025.206-.142.36-.347.463-.206.103-.438.154-.694.154h-13.807v-1.08h7.867l2.507-3.471ZM38.372,5.245c-.231.206-.554.321-.964.347-.412.026-.926-.038-1.543-.192-.926.283-2,.553-3.221.81-1.222.258-2.507.482-3.856.675-1.35.193-2.693.354-4.03.482l-.116-.424c1.003-.515,2.031-1.125,3.086-1.832,1.054-.707,2.05-1.434,2.989-2.18.938-.745,1.689-1.413,2.256-2.005l5.399,4.319ZM34.939,35.096c-.026.154-.373.411-1.041.771-.669.359-1.62.54-2.854.54h-.849V15.195h4.744v19.9Z" style="fill:#fff;"/><path d="M42.691,1.08c.669.283,1.26.533,1.774.752.514.219,1.022.431,1.523.636.501.206,1.086.45,1.755.733h6.672v1.118h-6.826v30.507c0,.205-.187.456-.56.752-.373.295-.867.553-1.484.771-.617.218-1.299.327-2.044.327h-.811V1.08ZM47.493,7.598h6.769v1.118h-9.141v-1.118h2.372ZM47.493,12.303h6.769v1.08h-9.141v-1.08h2.372ZM69.341,26.861c.463.527.874,1.01,1.234,1.446-.053.463-.373.721-.965.771-1.542.129-2.938.251-4.185.366-1.247.116-2.622.238-4.126.367-1.505.129-3.009.257-4.513.386s-2.88.25-4.127.366c-1.247.115-2.629.237-4.146.366-.154-.411-.309-.797-.463-1.157,1.26-.103,2.41-.205,3.451-.309,1.042-.103,2.186-.212,3.433-.327,1.247-.116,2.481-.226,3.703-.328,1.221-.103,2.353-.206,3.394-.309s2.191-.206,3.452-.309c.437-.668.79-1.208,1.061-1.62.27-.411.636-.938,1.099-1.581.668.72,1.234,1.344,1.697,1.87ZM51.446,17.124h11.917c.438-.515.791-.945,1.061-1.292.271-.348.624-.777,1.062-1.292.899.669,1.645,1.233,2.236,1.696.591.463,1.131.926,1.62,1.389-.104.411-.45.617-1.042.617h-19.476c-.104-.36-.206-.732-.309-1.118h2.931ZM54.049,17.239h2.024v12.419c-.823.154-1.504.276-2.044.366s-1.209.226-2.005.405v-13.19h2.024ZM52.449,3.201c.437-.411.784-.771,1.041-1.08s.604-.681,1.042-1.118c.564.438,1.061.816,1.484,1.138.425.321.849.643,1.272.964.425.322.932.688,1.523,1.1-.103.129-.276.264-.521.404-.244.142-.547.251-.906.328v8.947c0,.104-.212.264-.637.482-.424.219-.919.411-1.484.578-.565.168-1.105.251-1.62.251h-.81V3.201h-.386ZM56.73,20.672h6.633v1.08h-8.947v-1.08h2.314ZM56.73,24.451h6.633v1.08h-8.947v-1.08h2.314ZM59.931,1.389c.616.231,1.156.438,1.619.616.463.181.926.367,1.389.56.463.193,1.003.405,1.62.637h7.25v1.118h-7.404v9.333c0,.154-.193.342-.579.56-.386.219-.867.411-1.446.578-.578.168-1.189.251-1.832.251h-.616V1.389ZM63.749,17.239h2.121v16.815c0,.103-.302.289-.906.559-.604.271-1.459.405-2.564.405h-.771v-17.779h2.121ZM65.176,7.598h6.864v1.118h-9.256v-1.118h2.392ZM65.176,12.303h6.864v1.08h-9.256v-1.08h2.392ZM69.611,3.201c.438-.515.804-.938,1.1-1.272.295-.334.675-.771,1.138-1.312.617.488,1.163.913,1.639,1.272.476.36.945.727,1.408,1.1s1.003.804,1.619,1.292c-.129.154-.321.308-.578.462s-.592.271-1.003.348v25.878c0,1.106-.122,2.058-.366,2.854-.245.797-.784,1.427-1.62,1.89s-2.115.771-3.837.926c-.026-.798-.097-1.498-.212-2.103-.116-.604-.29-1.086-.521-1.445-.23-.386-.539-.707-.925-.965-.386-.257-.99-.463-1.813-.617v-.501c.617.025,1.139.052,1.562.077s.829.045,1.215.058c.386.014.668.02.849.02.282,0,.476-.058.578-.174.103-.115.154-.302.154-.559V3.201h-.386Z" style="fill:#fff;"/><path d="M88.971,13.46c-.771,3.316-1.98,6.357-3.625,9.121-1.646,2.764-3.69,5.226-6.133,7.386l-.424-.386c.899-1.517,1.703-3.207,2.41-5.072.707-1.863,1.305-3.792,1.794-5.784.487-1.993.873-3.953,1.156-5.882h4.821v.617ZM94.911,4.743c-.489.463-1.363.515-2.623.154-1.055.335-2.313.656-3.779.965s-3.002.578-4.608.81c-1.607.231-3.195.412-4.764.54l-.115-.424c1.26-.54,2.552-1.189,3.876-1.948,1.324-.758,2.577-1.536,3.76-2.333s2.134-1.517,2.854-2.16l5.399,4.396ZM91.401,9.719c.849.771,1.568,1.427,2.16,1.967.591.54,1.118,1.055,1.581,1.543-.104.411-.45.617-1.042.617h-14.616l-.309-1.119h10.143l2.083-3.008ZM89.009,35.404c0,.154-.334.411-1.002.771-.669.359-1.557.54-2.661.54h-.811V5.399l4.474-1.774v31.779ZM88.817,15.851c1.568.721,2.712,1.492,3.433,2.314.72.823,1.131,1.607,1.234,2.353.102.746,0,1.369-.309,1.87-.309.502-.74.778-1.292.829-.554.052-1.113-.192-1.678-.732-.026-.72-.129-1.466-.309-2.237-.181-.771-.405-1.522-.675-2.256-.271-.732-.547-1.395-.829-1.986l.424-.154ZM97.996,35.058c0,.154-.192.347-.578.578s-.875.443-1.466.637c-.592.192-1.209.289-1.852.289h-.693v-18.859l4.782,1.89h12.92v1.08h-13.113v14.386ZM111.764,2.391c.617.489,1.157.926,1.62,1.312s.944.798,1.446,1.234c.501.438.957.836,1.369,1.195-.104.412-.477.617-1.119.617h-21.25l-.309-1.08h15.812l2.43-3.278ZM100.734,17.085c0,.129-.192.303-.578.521-.386.219-.868.412-1.446.579-.579.167-1.177.25-1.794.25h-.616V7.598l4.628,1.812h8.407v1.118h-8.601v6.557ZM109.296,15.35v1.08h-10.49v-1.08h10.49ZM102.817,31.239c0,.154-.283.36-.849.617-.566.257-1.195.386-1.89.386h-.463v-10.606l3.355,1.389h3.779v1.08h-3.934v7.135ZM100.542,0c1.696.103,3.001.38,3.914.829.912.45,1.529.958,1.852,1.523.321.565.417,1.118.289,1.658-.129.54-.424.99-.887,1.35-.463.36-1.01.54-1.64.54s-1.279-.257-1.947-.771c0-.873-.187-1.767-.56-2.68s-.816-1.665-1.33-2.257l.309-.192ZM106.635,28.887v1.08h-5.13v-1.08h5.13ZM104.899,23.024l1.466-1.466,2.97,2.237c-.077.103-.199.199-.366.289-.168.091-.366.161-.598.212v5.901c0,.077-.154.187-.463.327-.309.142-.662.276-1.061.405-.399.129-.778.192-1.138.192h-.54v-8.099h-.271ZM109.643,19.592l1.929-2.236,4.319,3.239c-.231.309-.669.54-1.312.694v10.683c0,.926-.115,1.71-.347,2.353s-.721,1.15-1.466,1.523c-.746.373-1.903.623-3.471.752-.026-.592-.065-1.125-.116-1.601-.052-.476-.18-.854-.386-1.138-.206-.257-.463-.495-.771-.713-.309-.219-.797-.392-1.465-.521v-.502c.462.026.854.052,1.176.077.321.026.63.045.926.058.295.014.521.02.675.02.282,0,.463-.063.54-.192s.115-.296.115-.502v-11.994h-.347ZM107.213,9.41l2.006-2.083,4.165,3.086c-.104.129-.265.264-.482.405-.219.142-.495.237-.829.289v5.708c0,.077-.219.199-.655.366-.438.167-.945.315-1.523.443-.579.129-1.1.192-1.562.192h-.771v-8.407h-.347Z" style="fill:#fff;"/><path d="M0,55.685c.279-.01.495-.058.645-.143.15-.085.255-.234.315-.45.06-.215.09-.512.09-.892v-5.985c0-.25.008-.49.022-.72.015-.23.027-.41.037-.54-.17.01-.365.018-.585.022s-.395.013-.524.022v-.99c.649-.01,1.305-.015,1.965-.015s1.32-.005,1.979-.016c.91-.01,1.695.103,2.355.338s1.165.59,1.515,1.064c.351.476.525,1.088.525,1.838,0,.4-.083.798-.248,1.192-.165.396-.425.76-.779,1.095-.355.336-.82.608-1.396.818s-1.268.324-2.077.345h-.465c-.15,0-.295-.005-.436-.016v1.605c0,.28-.005.535-.015.765-.01.23-.025.41-.045.54.13-.01.274-.017.435-.022.16-.005.323-.01.487-.015.165-.005.293-.008.383-.008v.99H0v-.825ZM2.939,51.71c.13.01.255.02.375.03.12.01.25.015.391.015.56,0,1.032-.1,1.417-.3s.678-.488.878-.863c.199-.375.3-.832.3-1.372,0-.49-.07-.89-.21-1.2-.141-.31-.325-.547-.555-.712-.23-.165-.485-.278-.766-.338s-.56-.09-.84-.09c-.26,0-.463.04-.607.12-.146.08-.245.223-.3.428-.056.205-.083.482-.083.832v3.45Z" style="fill:#fff;"/><path d="M9.63,56.51v-.825c.279-.01.495-.058.645-.143.15-.085.255-.234.315-.45.06-.215.09-.512.09-.892v-5.985c0-.25.008-.49.022-.72.015-.23.027-.41.037-.54-.17.01-.365.018-.585.022s-.395.013-.524.022v-.99c.66-.01,1.322-.018,1.987-.022s1.327-.008,1.987-.008c.91,0,1.683.105,2.317.315s1.115.537,1.44.982c.324.445.482,1.027.473,1.747-.011.41-.105.811-.285,1.2-.181.391-.465.735-.855,1.035-.39.3-.91.535-1.56.705.189.1.372.245.547.435.176.19.338.4.488.63l.81,1.245c.2.311.385.568.555.772.17.205.346.36.525.466.18.104.395.162.646.172v.825h-2.28c-.21-.17-.408-.38-.593-.63-.186-.25-.378-.54-.577-.87l-1.08-1.725c-.13-.21-.253-.408-.368-.593-.114-.185-.242-.343-.382-.473-.16.01-.306.015-.436.015s-.27-.005-.42-.015v2.04c0,.28-.005.535-.015.765-.01.23-.025.41-.045.54.109-.01.242-.017.397-.022.155-.005.308-.01.457-.015.15-.005.271-.008.36-.008v.99h-4.095ZM13.35,51.319c.56-.01,1.022-.095,1.388-.255.364-.159.64-.409.825-.75.185-.34.277-.774.277-1.305,0-.45-.067-.814-.203-1.095-.135-.28-.314-.495-.54-.646-.225-.149-.47-.252-.734-.308-.266-.055-.527-.082-.788-.082s-.465.04-.614.12c-.15.08-.253.223-.308.428-.056.205-.083.482-.083.832v3.015c.12.011.245.021.375.03s.265.015.405.015Z" style="fill:#fff;"/><path d="M25.064,52.805c0-.43-.062-.737-.188-.923-.125-.185-.306-.3-.54-.345-.235-.045-.518-.062-.848-.053l-.615.03v2.775c0,.27-.005.518-.015.742s-.025.402-.045.532l2.295-.015c.35,0,.67-.067.96-.202.29-.136.525-.365.705-.69s.27-.768.27-1.327h.825l-.075,3.18h-7.859v-.825c.279-.01.495-.058.645-.143.15-.085.255-.234.315-.45.06-.215.09-.512.09-.892v-5.985c0-.25.008-.49.022-.72.015-.23.027-.41.037-.54-.17.01-.365.018-.585.022s-.395.013-.524.022v-.99h7.395l.09,2.82h-.824c0-.57-.093-.998-.278-1.283-.185-.284-.422-.477-.712-.577-.29-.1-.591-.145-.9-.135l-.78.015c-.27.01-.479.056-.63.135-.149.08-.257.223-.322.428s-.098.508-.098.907v2.296l2.101.015-.075-1.305h.99v3.479h-.825Z" style="fill:#fff;"/><path d="M35.579,49.31c-.07-.529-.216-.992-.436-1.388-.22-.395-.513-.699-.877-.915-.365-.215-.803-.322-1.312-.322-.49,0-.897.141-1.223.42-.325.28-.487.625-.487,1.035,0,.34.098.636.292.885.195.25.478.478.848.683s.81.418,1.32.638c.38.16.765.338,1.154.532.391.195.75.428,1.08.698.33.27.598.582.803.938.205.354.308.777.308,1.267,0,.58-.152,1.096-.457,1.546-.306.449-.738.8-1.298,1.05-.561.25-1.221.375-1.98.375-.42,0-.864-.062-1.335-.188-.47-.125-.899-.312-1.29-.562l.045.645h-1.02l-.03-3.404h.855c.109.85.425,1.492.944,1.927.521.436,1.146.652,1.875.652.37,0,.7-.067.99-.202s.518-.32.683-.555c.165-.235.248-.503.248-.803,0-.39-.12-.71-.36-.96s-.545-.465-.915-.646c-.37-.18-.755-.354-1.155-.524-.45-.19-.875-.393-1.274-.607-.4-.215-.753-.46-1.058-.735-.306-.274-.546-.593-.721-.952-.175-.36-.262-.785-.262-1.275,0-.29.055-.598.165-.922.109-.325.292-.628.547-.908.255-.279.598-.51,1.027-.689.431-.181.965-.271,1.605-.271.399,0,.837.058,1.312.173.475.115.893.303,1.252.562l-.06-.63h1.035v3.435h-.84Z" style="fill:#fff;"/><path d="M44.699,49.31c-.07-.529-.216-.992-.436-1.388-.22-.395-.513-.699-.877-.915-.365-.215-.803-.322-1.312-.322-.49,0-.897.141-1.223.42-.325.28-.487.625-.487,1.035,0,.34.098.636.292.885.195.25.478.478.848.683s.81.418,1.32.638c.38.16.765.338,1.154.532.391.195.75.428,1.08.698.33.27.598.582.803.938.205.354.308.777.308,1.267,0,.58-.152,1.096-.457,1.546-.306.449-.738.8-1.298,1.05-.561.25-1.221.375-1.98.375-.42,0-.864-.062-1.335-.188-.47-.125-.899-.312-1.29-.562l.045.645h-1.02l-.03-3.404h.855c.109.85.425,1.492.944,1.927.521.436,1.146.652,1.875.652.37,0,.7-.067.99-.202s.518-.32.683-.555c.165-.235.248-.503.248-.803,0-.39-.12-.71-.36-.96s-.545-.465-.915-.646c-.37-.18-.755-.354-1.155-.524-.45-.19-.875-.393-1.274-.607-.4-.215-.753-.46-1.058-.735-.306-.274-.546-.593-.721-.952-.175-.36-.262-.785-.262-1.275,0-.29.055-.598.165-.922.109-.325.292-.628.547-.908.255-.279.598-.51,1.027-.689.431-.181.965-.271,1.605-.271.399,0,.837.058,1.312.173.475.115.893.303,1.252.562l-.06-.63h1.035v3.435h-.84Z" style="fill:#fff;"/><path d="M52.064,56.51v-.825c.279-.01.495-.058.645-.143.15-.085.255-.234.315-.45.06-.215.09-.512.09-.892v-5.985c0-.25.008-.49.022-.72.015-.23.027-.41.037-.54-.17.01-.365.018-.585.022s-.395.013-.524.022v-.99c.66-.01,1.322-.018,1.987-.022s1.327-.008,1.987-.008c.91,0,1.683.105,2.317.315s1.115.537,1.44.982c.324.445.482,1.027.473,1.747-.011.41-.105.811-.285,1.2-.181.391-.465.735-.855,1.035-.39.3-.91.535-1.56.705.189.1.372.245.547.435.176.19.338.4.488.63l.81,1.245c.2.311.385.568.555.772.17.205.346.36.525.466.18.104.395.162.646.172v.825h-2.28c-.21-.17-.408-.38-.593-.63-.186-.25-.378-.54-.577-.87l-1.08-1.725c-.13-.21-.253-.408-.368-.593-.114-.185-.242-.343-.382-.473-.16.01-.306.015-.436.015s-.27-.005-.42-.015v2.04c0,.28-.005.535-.015.765-.01.23-.025.41-.045.54.109-.01.242-.017.397-.022.155-.005.308-.01.457-.015.15-.005.271-.008.36-.008v.99h-4.095ZM55.784,51.319c.56-.01,1.022-.095,1.388-.255.364-.159.64-.409.825-.75.185-.34.277-.774.277-1.305,0-.45-.067-.814-.203-1.095-.135-.28-.314-.495-.54-.646-.225-.149-.47-.252-.734-.308-.266-.055-.527-.082-.788-.082s-.465.04-.614.12c-.15.08-.253.223-.308.428-.056.205-.083.482-.083.832v3.015c.12.011.245.021.375.03s.265.015.405.015Z" style="fill:#fff;"/><path d="M67.499,52.805c0-.43-.062-.737-.188-.923-.125-.185-.306-.3-.54-.345-.235-.045-.518-.062-.848-.053l-.615.03v2.775c0,.27-.005.518-.015.742s-.025.402-.045.532l2.295-.015c.35,0,.67-.067.96-.202.29-.136.525-.365.705-.69s.27-.768.27-1.327h.825l-.075,3.18h-7.859v-.825c.279-.01.495-.058.645-.143.15-.085.255-.234.315-.45.06-.215.09-.512.09-.892v-5.985c0-.25.008-.49.022-.72.015-.23.027-.41.037-.54-.17.01-.365.018-.585.022s-.395.013-.524.022v-.99h7.395l.09,2.82h-.824c0-.57-.093-.998-.278-1.283-.185-.284-.422-.477-.712-.577-.29-.1-.591-.145-.9-.135l-.78.015c-.27.01-.479.056-.63.135-.149.08-.257.223-.322.428s-.098.508-.098.907v2.296l2.101.015-.075-1.305h.99v3.479h-.825Z" style="fill:#fff;"/><path d="M72.014,56.51v-.825c.279-.01.495-.058.645-.143.15-.085.255-.234.315-.45.06-.215.09-.512.09-.892v-5.985c0-.25.008-.49.022-.72.015-.23.027-.41.037-.54-.17.01-.365.018-.585.022s-.395.013-.524.022v-.99h3.989v.825c-.27.01-.482.058-.637.143-.155.085-.263.232-.323.442-.06.21-.09.51-.09.899v5.971c0,.27-.005.518-.015.742s-.025.402-.045.532l2.28-.015c.6-.01,1.064-.215,1.395-.615.33-.399.495-1.02.495-1.859h.84l-.09,3.435h-7.8Z" style="fill:#fff;"/><path d="M86.368,52.805c0-.43-.062-.737-.188-.923-.125-.185-.306-.3-.54-.345-.235-.045-.518-.062-.848-.053l-.615.03v2.775c0,.27-.005.518-.015.742s-.025.402-.045.532l2.295-.015c.35,0,.67-.067.96-.202.29-.136.525-.365.705-.69s.27-.768.27-1.327h.825l-.075,3.18h-7.859v-.825c.279-.01.495-.058.645-.143.15-.085.255-.234.315-.45.06-.215.09-.512.09-.892v-5.985c0-.25.008-.49.022-.72.015-.23.027-.41.037-.54-.17.01-.365.018-.585.022s-.395.013-.524.022v-.99h7.395l.09,2.82h-.824c0-.57-.093-.998-.278-1.283-.185-.284-.422-.477-.712-.577-.29-.1-.591-.145-.9-.135l-.78.015c-.27.01-.479.056-.63.135-.149.08-.257.223-.322.428s-.098.508-.098.907v2.296l2.101.015-.075-1.305h.99v3.479h-.825Z" style="fill:#fff;"/><path d="M90.118,56.51v-.855c.28,0,.505-.079.676-.239.17-.16.31-.373.42-.638.109-.265.225-.562.345-.893l2.985-8.145h.81l3.255,8.295c.061.17.14.41.24.72.1.31.155.58.165.81.17-.01.335-.02.495-.029.159-.01.3-.016.42-.016v.99h-3.825v-.825c.31,0,.52-.064.63-.194s.157-.301.143-.511-.067-.425-.157-.645l-.375-1.021-3.48.061-.33,1.005c-.06.17-.13.362-.21.577-.08.216-.16.408-.239.578.18-.01.377-.021.592-.03s.388-.015.518-.015v1.02h-3.075ZM93.193,52.415h2.82l-.811-2.205c-.119-.34-.232-.683-.337-1.027-.105-.346-.192-.663-.263-.953h-.03c-.06.2-.133.46-.217.78-.086.32-.203.686-.353,1.095l-.811,2.311Z" style="fill:#fff;"/><path d="M106.993,49.31c-.07-.529-.216-.992-.436-1.388-.22-.395-.513-.699-.877-.915-.365-.215-.803-.322-1.312-.322-.49,0-.897.141-1.223.42-.325.28-.487.625-.487,1.035,0,.34.098.636.292.885.195.25.478.478.848.683s.81.418,1.32.638c.38.16.765.338,1.154.532.391.195.75.428,1.08.698.33.27.598.582.803.938.205.354.308.777.308,1.267,0,.58-.152,1.096-.457,1.546-.306.449-.738.8-1.298,1.05-.561.25-1.221.375-1.98.375-.42,0-.864-.062-1.335-.188-.47-.125-.899-.312-1.29-.562l.045.645h-1.02l-.03-3.404h.855c.109.85.425,1.492.944,1.927.521.436,1.146.652,1.875.652.37,0,.7-.067.99-.202s.518-.32.683-.555c.165-.235.248-.503.248-.803,0-.39-.12-.71-.36-.96s-.545-.465-.915-.646c-.37-.18-.755-.354-1.155-.524-.45-.19-.875-.393-1.274-.607-.4-.215-.753-.46-1.058-.735-.306-.274-.546-.593-.721-.952-.175-.36-.262-.785-.262-1.275,0-.29.055-.598.165-.922.109-.325.292-.628.547-.908.255-.279.598-.51,1.027-.689.431-.181.965-.271,1.605-.271.399,0,.837.058,1.312.173.475.115.893.303,1.252.562l-.06-.63h1.035v3.435h-.84Z" style="fill:#fff;"/><path d="M115.243,52.805c0-.43-.062-.737-.188-.923-.125-.185-.306-.3-.54-.345-.235-.045-.518-.062-.848-.053l-.615.03v2.775c0,.27-.005.518-.015.742s-.025.402-.045.532l2.295-.015c.35,0,.67-.067.96-.202.29-.136.525-.365.705-.69s.27-.768.27-1.327h.825l-.075,3.18h-7.859v-.825c.279-.01.495-.058.645-.143.15-.085.255-.234.315-.45.06-.215.09-.512.09-.892v-5.985c0-.25.008-.49.022-.72.015-.23.027-.41.037-.54-.17.01-.365.018-.585.022s-.395.013-.524.022v-.99h7.395l.09,2.82h-.824c0-.57-.093-.998-.278-1.283-.185-.284-.422-.477-.712-.577-.29-.1-.591-.145-.9-.135l-.78.015c-.27.01-.479.056-.63.135-.149.08-.257.223-.322.428s-.098.508-.098.907v2.296l2.101.015-.075-1.305h.99v3.479h-.825Z" style="fill:#fff;"/></svg>
