<?xml version="1.0" encoding="UTF-8"?><svg id="Layer_1" xmlns="http://www.w3.org/2000/svg" viewBox="0 0 69.329 94.339"><path d="M21.537,9.564h4.859v.617c-.798,3.42-2.063,6.563-3.799,9.43s-3.902,5.394-6.499,7.578l-.463-.386c1.028-1.567,1.922-3.304,2.681-5.206.758-1.902,1.408-3.883,1.947-5.939.54-2.057.965-4.088,1.273-6.094ZM16.561,9.564h10.529l2.044-3.201c.822.823,1.517,1.518,2.082,2.083s1.042,1.105,1.428,1.619c-.077.412-.412.617-1.003.617h-14.771l-.309-1.118ZM21.806,0l6.325.617c-.026.283-.135.515-.328.694-.192.18-.559.308-1.099.385v33.207c0,.128-.193.309-.579.539-.386.231-.881.438-1.484.617-.604.18-1.215.271-1.832.271h-1.003V0ZM26.705,14c1.594.488,2.828,1.061,3.702,1.716s1.472,1.318,1.793,1.986c.321.669.425,1.292.309,1.87-.115.579-.373,1.042-.771,1.389-.399.347-.882.515-1.446.501-.566-.013-1.145-.289-1.736-.829-.052-.719-.192-1.465-.424-2.236s-.501-1.517-.81-2.237c-.309-.72-.644-1.362-1.003-1.928l.386-.231ZM32.875,3.355V1.234l5.168,2.121h10.027v1.079h-10.221v29.735c0,.206-.192.463-.578.771s-.894.572-1.523.791c-.631.218-1.318.327-2.063.327h-.81V3.355ZM35.305,30.892h12.958v1.08h-12.958v-1.08ZM35.343,12.38h12.959v1.08h-12.959v-1.08ZM35.343,21.443h12.959v1.118h-12.959v-1.118ZM45.564,3.355h-.386l2.391-2.623,4.628,3.702c-.129.181-.321.342-.578.482-.258.142-.592.264-1.003.366v29.041c0,.103-.226.283-.675.54-.45.257-1.003.488-1.658.694-.656.205-1.292.309-1.909.309h-.81V3.355Z" style="fill:#fff;"/><path d="M15.829,74.897h32.551l1.89-3.433c.771.875,1.407,1.62,1.909,2.237.501.617.932,1.183,1.292,1.696-.104.412-.438.617-1.003.617H16.137l-.309-1.118ZM19.994,61.014v-2.121l5.284,2.121h20.71v1.118h-21.096v30.121c0,.205-.188.456-.56.752-.373.295-.868.553-1.484.771-.617.218-1.299.327-2.045.327h-.81v-33.09ZM27.977,61.014h4.551v31.2c0,.154-.328.405-.983.752-.655.348-1.575.521-2.758.521h-.81v-32.473ZM35.768,61.014h4.589v31.2c0,.154-.328.405-.983.752-.655.348-1.588.521-2.796.521h-.81v-32.473ZM43.635,61.014h-.386l2.237-2.546,4.666,3.625c-.129.154-.321.309-.578.463-.258.154-.592.271-1.003.348v25.646c0,1.132-.115,2.089-.347,2.874-.231.783-.733,1.4-1.505,1.851-.771.45-1.979.739-3.625.868-.025-.798-.071-1.498-.135-2.103-.064-.604-.174-1.073-.328-1.407-.154-.386-.386-.707-.694-.964s-.759-.438-1.35-.54v-.54c.359.025.688.052.983.077s.572.045.829.058c.257.014.45.02.579.02.282,0,.463-.064.54-.193.077-.128.115-.309.115-.54v-26.996Z" style="fill:#fff;"/><path d="M5.101,53.559c-1.061,0-1.971-.228-2.73-.683s-1.345-1.085-1.755-1.89C.205,50.181,0,49.269,0,48.248c0-.689.107-1.372.323-2.047.215-.676.537-1.285.967-1.83.431-.545.973-.98,1.628-1.306.654-.324,1.417-.487,2.287-.487.301,0,.625.03.976.09.35.061.697.148,1.042.263.346.115.652.253.923.413l-.061-.66h1.051v3.479h-.825c-.08-.59-.255-1.08-.525-1.47-.27-.39-.612-.688-1.027-.893s-.877-.308-1.388-.308c-.52,0-.987.12-1.402.36s-.765.564-1.05.975-.503.88-.652,1.41c-.15.53-.226,1.095-.226,1.695,0,.88.138,1.667.413,2.362.274.695.667,1.24,1.178,1.635.51.396,1.125.593,1.845.593.22,0,.465-.018.734-.053.271-.035.54-.092.811-.172.27-.08.51-.176.72-.285v-1.545c0-.261.005-.516.016-.766.01-.25.02-.455.029-.615-.17.011-.365.018-.585.023-.22.005-.395.012-.524.022v-.99h3.795v.825c-.21.01-.381.047-.511.112s-.234.16-.314.285-.135.277-.165.457-.045.385-.045.615v2.354h-.375c-.24,0-.505.038-.795.113-.29.074-.605.167-.945.277-.31.1-.655.188-1.035.263-.38.074-.774.112-1.185.112Z" style="fill:#fff;"/><path d="M10.98,53.318v-.855c.28,0,.505-.079.676-.239.17-.16.31-.373.42-.638.109-.265.225-.563.345-.893l2.985-8.145h.81l3.255,8.295c.061.17.14.41.24.72.1.31.155.58.165.81.17-.01.335-.02.495-.029.159-.01.3-.016.42-.016v.99h-3.825v-.825c.31,0,.52-.064.63-.194s.157-.301.143-.511-.067-.425-.157-.645l-.375-1.021-3.48.061-.33,1.005c-.06.17-.13.362-.21.577-.08.216-.16.408-.239.578.18-.01.377-.021.592-.03s.388-.015.518-.015v1.02h-3.075ZM14.056,49.224h2.82l-.811-2.205c-.119-.34-.232-.683-.337-1.027-.105-.346-.192-.663-.263-.953h-.03c-.06.2-.133.46-.217.78-.086.32-.203.686-.353,1.095l-.811,2.311Z" style="fill:#fff;"/><path d="M21.855,53.318v-.825c.279-.01.495-.058.645-.143.15-.085.255-.234.315-.45.06-.215.09-.512.09-.892v-5.985c0-.25.008-.49.022-.72.015-.23.027-.41.037-.54-.17.01-.365.018-.585.022s-.395.013-.524.022v-.99h3.989v.825c-.27.01-.482.058-.637.143-.155.085-.263.232-.323.442-.06.21-.09.51-.09.899v5.971c0,.27-.005.518-.015.742s-.025.402-.045.532l2.28-.015c.6-.01,1.064-.215,1.395-.615.33-.399.495-1.02.495-1.859h.84l-.09,3.435h-7.8Z" style="fill:#fff;"/><path d="M31.08,53.318v-.825c.279-.01.495-.058.645-.143.15-.085.255-.234.315-.45.06-.215.09-.512.09-.892v-5.985c0-.25.008-.49.022-.72.015-.23.027-.41.037-.54-.17.01-.365.018-.585.022s-.395.013-.524.022v-.99h3.989v.825c-.27.01-.482.058-.637.143-.155.085-.263.232-.323.442-.06.21-.09.51-.09.899v5.971c0,.27-.005.518-.015.742s-.025.402-.045.532l2.28-.015c.6-.01,1.064-.215,1.395-.615.33-.399.495-1.02.495-1.859h.84l-.09,3.435h-7.8Z" style="fill:#fff;"/><path d="M45.436,49.613c0-.43-.063-.737-.188-.923-.125-.185-.306-.3-.54-.345-.235-.045-.518-.063-.848-.053l-.615.03v2.775c0,.27-.005.518-.015.742s-.025.402-.045.532l2.295-.015c.35,0,.67-.067.96-.202.29-.136.525-.365.705-.69s.27-.768.27-1.327h.825l-.075,3.18h-7.859v-.825c.279-.01.495-.058.645-.143.15-.085.255-.234.315-.45.06-.215.09-.512.09-.892v-5.985c0-.25.008-.49.022-.72.015-.23.027-.41.037-.54-.17.01-.365.018-.585.022s-.395.013-.524.022v-.99h7.395l.09,2.82h-.824c0-.57-.093-.998-.278-1.283-.185-.284-.422-.477-.712-.577-.29-.1-.591-.145-.9-.135l-.78.015c-.27.01-.479.056-.63.135-.149.08-.257.223-.322.428s-.098.508-.098.907v2.296l2.101.015-.075-1.305h.99v3.479h-.825Z" style="fill:#fff;"/><path d="M49.95,53.318v-.825c.279-.01.495-.058.645-.143.15-.085.255-.234.315-.45.06-.215.09-.512.09-.892v-5.985c0-.25.008-.49.022-.72.015-.23.027-.41.037-.54-.17.01-.365.018-.585.022s-.395.013-.524.022v-.99c.66-.01,1.322-.018,1.987-.022s1.327-.008,1.987-.008c.91,0,1.683.105,2.317.315s1.115.537,1.44.982c.324.445.482,1.027.473,1.747-.011.41-.105.811-.285,1.2-.181.391-.465.735-.855,1.035-.39.3-.91.535-1.56.705.189.1.372.245.547.435.176.19.338.4.488.63l.81,1.245c.2.311.385.568.555.772.17.205.346.36.525.466.18.104.395.162.646.172v.825h-2.28c-.21-.17-.408-.38-.593-.63-.186-.25-.378-.54-.577-.87l-1.08-1.725c-.13-.21-.253-.408-.368-.593-.114-.185-.242-.343-.382-.473-.16.01-.306.015-.436.015s-.27-.005-.42-.015v2.04c0,.28-.005.535-.015.765-.01.23-.025.41-.045.54.109-.01.242-.017.397-.022.155-.005.308-.01.457-.015.15-.005.271-.008.36-.008v.99h-4.095ZM53.67,48.128c.56-.01,1.022-.095,1.388-.255.364-.159.64-.409.825-.75.185-.34.277-.774.277-1.305,0-.45-.067-.814-.203-1.095-.135-.28-.314-.495-.54-.646-.225-.149-.47-.252-.734-.308-.266-.055-.527-.082-.788-.082s-.465.04-.614.12c-.15.08-.253.223-.308.428-.056.205-.083.482-.083.832v3.015c.12.011.245.021.375.03s.265.015.405.015Z" style="fill:#fff;"/><path d="M62.355,53.318v-.825c.279-.01.494-.06.645-.149.15-.091.255-.24.315-.45.06-.21.09-.505.09-.885v-1.44l-2.7-4.29c-.18-.28-.33-.56-.45-.84s-.19-.505-.21-.675c-.16.01-.3.018-.42.022s-.245.013-.375.022v-.99h4.245v.825c-.351-.01-.618.035-.803.135-.185.101-.285.247-.3.442s.067.442.247.742l1.155,1.875c.061.101.14.233.24.398.1.164.202.34.308.524.104.186.197.353.277.503h.015c.07-.15.163-.34.277-.57.115-.229.253-.5.413-.81l.944-1.83c.051-.11.118-.245.203-.405s.178-.322.277-.487.195-.303.285-.413c-.17.011-.373.021-.607.03-.235.01-.423.021-.563.03v-.99h3.24v.825c-.4.04-.735.189-1.006.45-.27.26-.56.68-.869,1.26-.33.63-.658,1.252-.983,1.867-.324.615-.643,1.223-.952,1.822v2.04c0,.271-.005.521-.015.75-.011.23-.025.41-.045.54.18-.01.392-.02.637-.029s.438-.016.578-.016v.99h-4.095Z" style="fill:#fff;"/></svg>
