<?xml version="1.0" encoding="UTF-8"?><svg id="Layer_1" xmlns="http://www.w3.org/2000/svg" viewBox="0 0 54.631 94.143"><path d="M14.797,9.564h4.859v.617c-.799,3.42-2.064,6.562-3.799,9.43-1.736,2.867-3.902,5.394-6.5,7.578l-.463-.386c1.029-1.567,1.922-3.304,2.682-5.206.758-1.902,1.408-3.883,1.947-5.939s.965-4.088,1.273-6.094ZM9.82,9.564h10.529l2.045-3.201c.822.823,1.516,1.518,2.082,2.083.564.565,1.041,1.105,1.428,1.619-.078.412-.412.617-1.004.617h-14.771l-.309-1.118ZM15.066,0l6.324.617c-.025.283-.135.515-.328.694-.191.18-.559.308-1.098.385v33.207c0,.128-.193.309-.58.539-.385.231-.881.438-1.484.617s-1.215.271-1.832.271h-1.002V0ZM19.965,14c1.594.488,2.828,1.061,3.701,1.716.875.655,1.473,1.318,1.793,1.986.322.669.426,1.292.309,1.87-.115.579-.373,1.042-.77,1.389-.4.347-.883.515-1.447.501-.566-.013-1.145-.289-1.736-.829-.051-.719-.191-1.465-.424-2.236-.23-.771-.5-1.517-.809-2.237-.309-.72-.645-1.362-1.004-1.928l.387-.231ZM26.135,3.355V1.234l5.168,2.121h10.027v1.079h-10.221v29.735c0,.206-.191.463-.578.771-.385.309-.893.572-1.523.791-.631.218-1.318.327-2.062.327h-.811V3.355ZM28.564,30.892h12.959v1.08h-12.959v-1.08ZM28.604,12.38h12.959v1.08h-12.959v-1.08ZM28.604,21.443h12.959v1.118h-12.959v-1.118ZM38.824,3.355h-.387l2.391-2.623,4.629,3.702c-.129.181-.322.342-.578.482-.258.142-.592.264-1.004.366v29.041c0,.103-.225.283-.674.54-.451.257-1.004.488-1.658.694-.656.205-1.293.309-1.91.309h-.809V3.355Z" style="fill:#fff;"/><path d="M9.088,74.897h32.551l1.891-3.433c.771.875,1.406,1.62,1.908,2.237s.932,1.183,1.293,1.696c-.104.412-.438.617-1.004.617H9.396l-.309-1.118ZM13.254,61.014v-2.121l5.283,2.121h20.711v1.118h-21.096v30.121c0,.205-.188.456-.561.752-.373.295-.867.553-1.484.771-.617.218-1.299.327-2.045.327h-.809v-33.09ZM21.236,61.014h4.551v31.2c0,.154-.328.405-.982.752-.656.348-1.576.521-2.758.521h-.811v-32.473ZM29.027,61.014h4.59v31.2c0,.154-.328.405-.984.752-.654.348-1.588.521-2.795.521h-.811v-32.473ZM36.895,61.014h-.385l2.236-2.546,4.666,3.625c-.129.154-.32.309-.578.463s-.592.271-1.002.348v25.646c0,1.132-.115,2.089-.348,2.874-.23.783-.732,1.4-1.504,1.851s-1.98.739-3.625.868c-.025-.798-.072-1.498-.135-2.103-.064-.604-.174-1.073-.328-1.407-.154-.386-.387-.707-.695-.964s-.758-.438-1.35-.54v-.54c.359.025.688.052.984.077.295.025.572.045.828.058.258.014.451.02.58.02.281,0,.463-.064.539-.193.078-.128.115-.309.115-.54v-26.996Z" style="fill:#fff;"/><path d="M0,53.318v-.855c.281,0,.506-.079.676-.239s.311-.373.42-.638.225-.562.346-.893l2.984-8.145h.811l3.254,8.295c.061.17.141.41.24.72s.156.58.166.81c.17-.01.334-.02.494-.029s.301-.016.42-.016v.99h-3.824v-.825c.309,0,.52-.064.629-.194.111-.13.158-.301.143-.511-.014-.21-.066-.425-.156-.645l-.375-1.021-3.48.061-.33,1.005c-.061.17-.131.362-.211.577-.08.216-.16.408-.238.578.18-.01.377-.021.592-.03s.387-.015.518-.015v1.02H0ZM3.076,49.224h2.82l-.811-2.205c-.119-.34-.232-.683-.338-1.027-.105-.346-.191-.663-.262-.953h-.031c-.059.2-.133.46-.217.78-.086.32-.203.686-.352,1.095l-.811,2.311Z" style="fill:#fff;"/><path d="M10.877,53.318v-.825c.279-.01.494-.058.645-.143s.254-.234.314-.45c.061-.215.09-.512.09-.892v-5.985c0-.25.008-.49.023-.72.014-.23.027-.41.037-.54-.17.01-.365.018-.586.022-.219.005-.395.013-.523.022v-.99h3.988v.825c-.27.01-.482.058-.637.143s-.262.232-.322.442-.09.51-.09.899v5.971c0,.27-.006.518-.016.742s-.025.402-.045.532l2.281-.015c.6-.01,1.064-.215,1.395-.615.33-.399.494-1.02.494-1.859h.84l-.09,3.435h-7.799Z" style="fill:#fff;"/><path d="M20.102,53.318v-.825c.279-.01.494-.06.645-.149.15-.091.254-.243.314-.458s.09-.518.09-.907v-5.925c0-.271.008-.521.023-.75.014-.23.027-.41.037-.54-.17.01-.365.018-.586.022-.219.005-.395.013-.523.022v-.99c.639-.01,1.283-.015,1.934-.015s1.305-.005,1.965-.016c1.18-.01,2.115.205,2.807.646.689.439,1.014,1.115.975,2.024-.01.301-.1.596-.27.886-.172.29-.422.55-.75.779-.33.23-.746.405-1.246.525v.015c1.029.11,1.795.418,2.295.923s.75,1.093.75,1.763c0,.64-.154,1.18-.465,1.62-.311.439-.738.774-1.283,1.005-.545.229-1.162.345-1.852.345h-4.859ZM22.98,52.403c.17.01.348.015.533.015.184,0,.361-.002.531-.007s.316-.008.436-.008c.66-.02,1.162-.212,1.508-.577s.518-.857.518-1.478c0-.511-.104-.91-.307-1.2-.205-.29-.471-.495-.797-.615-.324-.12-.672-.18-1.041-.18h-.705c-.201,0-.406.01-.615.03v2.76c0,.27-.006.515-.016.734-.01.221-.025.396-.045.525ZM23.041,47.469l.885-.016c.471-.01.84-.112,1.109-.308.271-.194.465-.449.586-.765.119-.315.18-.657.18-1.027-.01-.44-.107-.782-.293-1.027s-.412-.418-.682-.518-.551-.146-.84-.135c-.211,0-.385.029-.525.09-.141.06-.246.185-.314.375-.07.189-.105.475-.105.854v2.476Z" style="fill:#fff;"/><path d="M33.66,43.644c-.26.01-.467.055-.623.135-.154.08-.264.208-.33.383-.064.175-.096.422-.096.742v4.021c0,.6.057,1.122.172,1.567.115.444.281.817.502,1.117s.492.525.818.675c.324.15.701.226,1.133.226.6.02,1.107-.105,1.521-.375.414-.271.729-.665.938-1.186.211-.52.314-1.155.314-1.905l.016-4.02c0-.25.006-.49.016-.72.01-.23.023-.41.045-.54-.17.01-.365.018-.586.022-.219.005-.395.013-.525.022v-.99h3.24v.825c-.27.01-.482.058-.637.143-.156.085-.262.232-.322.442s-.09.51-.09.899l-.016,3.66c0,.79-.092,1.483-.277,2.078s-.457,1.093-.818,1.492c-.359.4-.795.7-1.305.9-.51.199-1.09.3-1.74.3-.83,0-1.521-.115-2.076-.346-.555-.229-.996-.562-1.32-.997-.326-.435-.555-.95-.689-1.545-.137-.595-.203-1.263-.203-2.003v-3.435c0-.26.008-.532.021-.817.016-.285.027-.503.039-.652-.172.01-.365.018-.586.022s-.395.013-.525.022v-.99h3.99v.825Z" style="fill:#fff;"/><path d="M47.146,53.469c-.371-.891-.744-1.772-1.119-2.647s-.746-1.758-1.117-2.647c-.1-.23-.215-.516-.344-.855-.131-.34-.262-.715-.391-1.125-.131-.41-.256-.83-.375-1.26.02.41.033.797.037,1.162.006.365.002.718-.008,1.058,0,.271-.002.565-.006.885-.006.32-.014.65-.023.99s-.018.683-.023,1.027c-.004.345-.006.678-.006.998-.012.25-.021.495-.031.734-.01.24-.025.436-.045.585.18-.01.383-.02.607-.029s.402-.016.533-.016v.99h-3.24v-.825c.26-.01.465-.053.615-.127.15-.075.26-.208.33-.397.07-.19.105-.46.105-.811l.164-6.104c.01-.25.018-.49.023-.721.004-.229.012-.42.021-.569-.16.01-.35.018-.57.022-.219.005-.4.013-.539.022v-.99h2.984l2.371,5.85c.1.261.207.54.322.841.115.3.227.595.338.885.109.29.203.545.283.765h.016c.131-.319.256-.652.375-.997.121-.346.24-.668.359-.968.4-1.06.809-2.117,1.223-3.173.416-1.055.834-2.122,1.254-3.202h3.045v.825c-.23,0-.428.035-.594.104-.164.07-.287.203-.367.397-.08.195-.115.498-.105.908l.285,6.104c.021.24.023.471.008.69s-.027.395-.037.524c.17-.02.367-.032.592-.037.227-.005.402-.008.533-.008v.99h-3.9v-.825c.25-.01.455-.055.615-.135s.275-.223.346-.428c.068-.205.094-.507.074-.907l-.18-3.765c0-.13-.01-.32-.029-.57-.021-.25-.035-.52-.045-.811-.012-.289-.021-.564-.031-.824-.029.069-.062.14-.098.21-.035.069-.062.14-.082.21l-3.074,7.995h-1.08Z" style="fill:#fff;"/></svg>
